<?xml version="1.0" encoding="UTF-8" standalone="no"?>
<!DOCTYPE svg PUBLIC "-//W3C//DTD SVG 1.1//EN"
 "http://www.w3.org/Graphics/SVG/1.1/DTD/svg11.dtd">
<!-- Generated by graphviz version 2.43.0 (0)
 -->
<!-- Title: pipeline_dag Pages: 1 -->
<svg width="613pt" height="202pt"
 viewBox="0.00 0.00 612.60 202.00" xmlns="http://www.w3.org/2000/svg" xmlns:xlink="http://www.w3.org/1999/xlink">
<g id="graph0" class="graph" transform="scale(1 1) rotate(0) translate(4 198)">
<title>pipeline_dag</title>
<polygon fill="white" stroke="transparent" points="-4,4 -4,-198 608.6,-198 608.6,4 -4,4"/>
<!-- p0 -->
<g id="node1" class="node">
<title>p0</title>
<ellipse fill="black" stroke="black" cx="328.6" cy="-175.4" rx="3.6" ry="3.6"/>
<text text-anchor="middle" x="275" y="-182.8" font-family="Times,serif" font-size="14.00">Channel.fromPath</text>
</g>
<!-- p1 -->
<g id="node2" class="node">
<title>p1</title>
<ellipse fill="none" stroke="black" cx="328.6" cy="-131.2" rx="3.5" ry="3.5"/>
<text text-anchor="middle" x="306.6" y="-138.5" font-family="Times,serif" font-size="14.00">collect</text>
</g>
<!-- p0&#45;&gt;p1 -->
<g id="edge1" class="edge">
<title>p0&#45;&gt;p1</title>
<path fill="none" stroke="black" d="M328.6,-171.63C328.6,-166.33 328.6,-154.43 328.6,-145.08"/>
<polygon fill="black" stroke="black" points="332.1,-145.03 328.6,-135.03 325.1,-145.03 332.1,-145.03"/>
</g>
<!-- p8 -->
<g id="node3" class="node">
<title>p8</title>
<ellipse fill="none" stroke="black" cx="181.6" cy="-58.6" rx="34.39" ry="18"/>
<text text-anchor="middle" x="181.6" y="-54.9" font-family="Times,serif" font-size="14.00">EdgeR</text>
</g>
<!-- p1&#45;&gt;p8 -->
<g id="edge2" class="edge">
<title>p1&#45;&gt;p8</title>
<path fill="none" stroke="black" d="M325.41,-129.55C315.58,-127.49 284.96,-120.54 261.6,-109.6 250.55,-104.42 248.91,-101.13 238.6,-94.6 230.01,-89.16 220.62,-83.35 211.99,-78.05"/>
<polygon fill="black" stroke="black" points="213.7,-74.99 203.34,-72.76 210.04,-80.96 213.7,-74.99"/>
<text text-anchor="middle" x="292.1" y="-98.4" font-family="Times,serif" font-size="14.00">design_file</text>
</g>
<!-- p10 -->
<g id="node8" class="node">
<title>p10</title>
<ellipse fill="none" stroke="black" cx="465.6" cy="-58.6" rx="48.19" ry="18"/>
<text text-anchor="middle" x="465.6" y="-54.9" font-family="Times,serif" font-size="14.00">MethylKit</text>
</g>
<!-- p1&#45;&gt;p10 -->
<g id="edge10" class="edge">
<title>p1&#45;&gt;p10</title>
<path fill="none" stroke="black" d="M331.82,-129.75C342.34,-128.18 376.46,-122.34 401.6,-109.6 403.75,-108.51 421.84,-94.34 438.24,-81.36"/>
<polygon fill="black" stroke="black" points="440.41,-84.1 446.07,-75.15 436.06,-78.62 440.41,-84.1"/>
<text text-anchor="middle" x="450.1" y="-98.4" font-family="Times,serif" font-size="14.00">design_file</text>
</g>
<!-- p9 -->
<g id="node11" class="node">
<title>p9</title>
<ellipse fill="black" stroke="black" cx="181.6" cy="-1.8" rx="1.8" ry="1.8"/>
</g>
<!-- p8&#45;&gt;p9 -->
<g id="edge9" class="edge">
<title>p8&#45;&gt;p9</title>
<path fill="none" stroke="black" d="M181.6,-40.56C181.6,-31.87 181.6,-21.56 181.6,-13.9"/>
<polygon fill="black" stroke="black" points="185.1,-13.76 181.6,-3.76 178.1,-13.76 185.1,-13.76"/>
</g>
<!-- p2 -->
<g id="node4" class="node">
<title>p2</title>
<ellipse fill="black" stroke="black" cx="276.6" cy="-175.4" rx="3.6" ry="3.6"/>
<text text-anchor="middle" x="223" y="-160.6" font-family="Times,serif" font-size="14.00">Channel.fromPath</text>
</g>
<!-- p3 -->
<g id="node5" class="node">
<title>p3</title>
<ellipse fill="none" stroke="black" cx="276.6" cy="-131.2" rx="3.5" ry="3.5"/>
<text text-anchor="middle" x="254.6" y="-138.5" font-family="Times,serif" font-size="14.00">collect</text>
</g>
<!-- p2&#45;&gt;p3 -->
<g id="edge3" class="edge">
<title>p2&#45;&gt;p3</title>
<path fill="none" stroke="black" d="M276.6,-171.63C276.6,-166.33 276.6,-154.43 276.6,-145.08"/>
<polygon fill="black" stroke="black" points="280.1,-145.03 276.6,-135.03 273.1,-145.03 280.1,-145.03"/>
</g>
<!-- p3&#45;&gt;p8 -->
<g id="edge4" class="edge">
<title>p3&#45;&gt;p8</title>
<path fill="none" stroke="black" d="M273.12,-129.99C257.54,-128.99 194.47,-124.06 182.6,-109.6 177.41,-103.28 175.9,-94.84 176.07,-86.69"/>
<polygon fill="black" stroke="black" points="179.56,-87.01 177.03,-76.72 172.59,-86.34 179.56,-87.01"/>
<text text-anchor="middle" x="210.6" y="-98.4" font-family="Times,serif" font-size="14.00">comp_file</text>
</g>
<!-- p3&#45;&gt;p10 -->
<g id="edge11" class="edge">
<title>p3&#45;&gt;p10</title>
<path fill="none" stroke="black" d="M279.63,-129.14C287.19,-126.44 307.33,-118.85 322.6,-109.6 331.8,-104.03 332.02,-99.49 341.6,-94.6 363.99,-83.18 390.62,-75.04 413.45,-69.5"/>
<polygon fill="black" stroke="black" points="414.36,-72.89 423.31,-67.21 412.77,-66.07 414.36,-72.89"/>
<text text-anchor="middle" x="369.6" y="-98.4" font-family="Times,serif" font-size="14.00">comp_file</text>
</g>
<!-- p4 -->
<g id="node6" class="node">
<title>p4</title>
<ellipse fill="black" stroke="black" cx="103.6" cy="-131.2" rx="3.6" ry="3.6"/>
<text text-anchor="middle" x="50" y="-138.6" font-family="Times,serif" font-size="14.00">Channel.fromPath</text>
</g>
<!-- p4&#45;&gt;p8 -->
<g id="edge5" class="edge">
<title>p4&#45;&gt;p8</title>
<path fill="none" stroke="black" d="M102.74,-127.31C101,-120.84 97.76,-104.9 104.6,-94.6 112.77,-82.3 126.41,-74.26 139.95,-69.03"/>
<polygon fill="black" stroke="black" points="141.39,-72.24 149.72,-65.7 139.13,-65.61 141.39,-72.24"/>
<text text-anchor="middle" x="132.1" y="-98.4" font-family="Times,serif" font-size="14.00">cover_file</text>
</g>
<!-- p5 -->
<g id="node7" class="node">
<title>p5</title>
<ellipse fill="black" stroke="black" cx="578.6" cy="-131.2" rx="3.6" ry="3.6"/>
<text text-anchor="middle" x="525" y="-138.6" font-family="Times,serif" font-size="14.00">Channel.fromPath</text>
</g>
<!-- p5&#45;&gt;p10 -->
<g id="edge6" class="edge">
<title>p5&#45;&gt;p10</title>
<path fill="none" stroke="black" d="M576.88,-127.61C572.51,-121.23 560.37,-104.5 546.6,-94.6 535.6,-86.69 522.53,-80.07 510.13,-74.79"/>
<polygon fill="black" stroke="black" points="511.41,-71.53 500.83,-71.01 508.78,-78.02 511.41,-71.53"/>
<text text-anchor="middle" x="583.1" y="-98.4" font-family="Times,serif" font-size="14.00">bamDir</text>
</g>
<!-- p11 -->
<g id="node12" class="node">
<title>p11</title>
<ellipse fill="black" stroke="black" cx="465.6" cy="-1.8" rx="1.8" ry="1.8"/>
</g>
<!-- p10&#45;&gt;p11 -->
<g id="edge12" class="edge">
<title>p10&#45;&gt;p11</title>
<path fill="none" stroke="black" d="M465.6,-40.56C465.6,-31.87 465.6,-21.56 465.6,-13.9"/>
<polygon fill="black" stroke="black" points="469.1,-13.76 465.6,-3.76 462.1,-13.76 469.1,-13.76"/>
</g>
<!-- p6 -->
<g id="node9" class="node">
<title>p6</title>
<ellipse fill="black" stroke="black" cx="507.6" cy="-175.4" rx="3.6" ry="3.6"/>
<text text-anchor="middle" x="454" y="-182.8" font-family="Times,serif" font-size="14.00">Channel.fromPath</text>
</g>
<!-- p7 -->
<g id="node10" class="node">
<title>p7</title>
<ellipse fill="none" stroke="black" cx="507.6" cy="-131.2" rx="3.5" ry="3.5"/>
<text text-anchor="middle" x="485.6" y="-116.5" font-family="Times,serif" font-size="14.00">collect</text>
</g>
<!-- p6&#45;&gt;p7 -->
<g id="edge7" class="edge">
<title>p6&#45;&gt;p7</title>
<path fill="none" stroke="black" d="M507.6,-171.63C507.6,-166.33 507.6,-154.43 507.6,-145.08"/>
<polygon fill="black" stroke="black" points="511.1,-145.03 507.6,-135.03 504.1,-145.03 511.1,-145.03"/>
</g>
<!-- p7&#45;&gt;p10 -->
<g id="edge8" class="edge">
<title>p7&#45;&gt;p10</title>
<path fill="none" stroke="black" d="M506.2,-127.85C502.24,-121.19 490.58,-101.59 480.76,-85.09"/>
<polygon fill="black" stroke="black" points="483.68,-83.15 475.56,-76.35 477.67,-86.73 483.68,-83.15"/>
<text text-anchor="middle" x="518.6" y="-98.4" font-family="Times,serif" font-size="14.00">phenoGr</text>
</g>
</g>
</svg>
